<svg width="2917" height="1163" viewBox="0 0 2917 1163" fill="none" xmlns="http://www.w3.org/2000/svg">
<rect width="2916.69" height="1162.06" fill="none"/>
<path d="M463.408 515.131L395.58 684.934H354.008L448.092 477.148H487.477L577.185 684.934H537.801L463.408 515.131Z" fill="#00A781"/>
<path d="M834.179 612.803C834.179 586.925 839.479 564.008 850.08 544.054C860.992 524.1 875.646 508.667 894.041 497.754C912.748 486.53 933.326 480.918 955.775 480.918C976.041 480.918 993.656 484.971 1008.62 493.078C1023.9 500.872 1036.06 510.694 1045.1 522.541V485.127H1098.88V742.816H1045.1V704.467C1036.06 716.627 1023.74 726.76 1008.15 734.866C992.565 742.972 974.793 747.025 954.839 747.025C932.703 747.025 912.437 741.413 894.041 730.189C875.646 718.653 860.992 702.752 850.08 682.486C839.479 661.909 834.179 638.681 834.179 612.803ZM1045.1 613.738C1045.1 595.966 1041.36 580.533 1033.88 567.438C1026.71 554.343 1017.2 544.366 1005.35 537.507C993.5 530.648 980.717 527.218 966.999 527.218C953.28 527.218 940.497 530.648 928.649 537.507C916.802 544.054 907.136 553.876 899.654 566.97C892.483 579.754 888.897 595.031 888.897 612.803C888.897 630.574 892.483 646.163 899.654 659.57C907.136 672.977 916.802 683.266 928.649 690.437C940.809 697.296 953.592 700.726 966.999 700.726C980.717 700.726 993.5 697.296 1005.35 690.437C1017.2 683.578 1026.71 673.6 1033.88 660.506C1041.36 647.099 1045.1 631.51 1045.1 613.738ZM1411.63 485.127V742.816H1358.32V712.418C1349.9 723.018 1338.83 731.436 1325.11 737.672C1311.71 743.596 1297.37 746.558 1282.09 746.558C1261.82 746.558 1243.58 742.349 1227.37 733.931C1211.47 725.512 1198.84 713.041 1189.49 696.517C1180.45 679.992 1175.93 660.038 1175.93 636.654V485.127H1228.77V628.704C1228.77 651.776 1234.54 669.547 1246.08 682.019C1257.61 694.178 1273.36 700.258 1293.31 700.258C1313.27 700.258 1329.01 694.178 1340.55 682.019C1352.4 669.547 1358.32 651.776 1358.32 628.704V485.127H1411.63ZM1473.56 612.803C1473.56 586.925 1478.86 564.008 1489.46 544.054C1500.37 524.1 1515.03 508.667 1533.42 497.754C1552.13 486.53 1572.86 480.918 1595.62 480.918C1612.46 480.918 1628.98 484.66 1645.2 492.142C1661.72 499.313 1674.82 508.979 1684.48 521.138V396.737H1738.27V742.816H1684.48V703.999C1675.75 716.471 1663.59 726.76 1648 734.866C1632.73 742.972 1615.11 747.025 1595.16 747.025C1572.71 747.025 1552.13 741.413 1533.42 730.189C1515.03 718.653 1500.37 702.752 1489.46 682.486C1478.86 661.909 1473.56 638.681 1473.56 612.803ZM1684.48 613.738C1684.48 595.966 1680.74 580.533 1673.26 567.438C1666.09 554.343 1656.58 544.366 1644.73 537.507C1632.88 530.648 1620.1 527.218 1606.38 527.218C1592.66 527.218 1579.88 530.648 1568.03 537.507C1556.18 544.054 1546.52 553.876 1539.04 566.97C1531.86 579.754 1528.28 595.031 1528.28 612.803C1528.28 630.574 1531.86 646.163 1539.04 659.57C1546.52 672.977 1556.18 683.266 1568.03 690.437C1580.19 697.296 1592.97 700.726 1606.38 700.726C1620.1 700.726 1632.88 697.296 1644.73 690.437C1656.58 683.578 1666.09 673.6 1673.26 660.506C1680.74 647.099 1684.48 631.51 1684.48 613.738ZM1844.77 450.987C1835.11 450.987 1827 447.713 1820.45 441.166C1813.9 434.618 1810.63 426.512 1810.63 416.847C1810.63 407.181 1813.9 399.075 1820.45 392.528C1827 385.98 1835.11 382.706 1844.77 382.706C1854.12 382.706 1862.07 385.98 1868.62 392.528C1875.17 399.075 1878.44 407.181 1878.44 416.847C1878.44 426.512 1875.17 434.618 1868.62 441.166C1862.07 447.713 1854.12 450.987 1844.77 450.987ZM1870.96 485.127V742.816H1817.65V485.127H1870.96ZM2012.51 528.621V671.262C2012.51 680.927 2014.7 687.942 2019.06 692.307C2023.74 696.361 2031.53 698.387 2042.44 698.387H2075.18V742.816H2033.09C2009.08 742.816 1990.69 737.204 1977.9 725.98C1965.12 714.756 1958.73 696.517 1958.73 671.262V528.621H1928.33V485.127H1958.73V421.056H2012.51V485.127H2075.18V528.621H2012.51Z" fill="#FFFFFF"/>
<path d="M2369.85 607.658C2369.85 617.323 2369.23 626.053 2367.98 633.848H2171.09C2172.65 654.426 2180.29 670.95 2194 683.422C2207.72 695.893 2224.56 702.129 2244.51 702.129C2273.2 702.129 2293.46 690.125 2305.31 666.118H2362.83C2355.04 689.813 2340.85 709.3 2320.28 724.577C2300.01 739.543 2274.76 747.025 2244.51 747.025C2219.88 747.025 2197.75 741.569 2178.1 730.657C2158.77 719.433 2143.49 703.843 2132.27 683.889C2121.36 663.623 2115.9 640.24 2115.9 613.738C2115.9 587.236 2121.2 564.008 2131.8 544.054C2142.72 523.788 2157.84 508.199 2177.17 497.287C2196.81 486.374 2219.26 480.918 2244.51 480.918C2268.83 480.918 2290.5 486.218 2309.52 496.819C2328.54 507.42 2343.35 522.385 2353.95 541.716C2364.55 560.735 2369.85 582.716 2369.85 607.658ZM2314.2 590.822C2313.88 571.18 2306.87 555.434 2293.15 543.587C2279.43 531.739 2262.44 525.815 2242.17 525.815C2223.78 525.815 2208.03 531.739 2194.94 543.587C2181.84 555.123 2174.05 570.868 2171.56 590.822H2314.2ZM2667.85 607.658C2667.85 617.323 2667.22 626.053 2665.98 633.848H2469.08C2470.64 654.426 2478.28 670.95 2492 683.422C2505.72 695.893 2522.56 702.129 2542.51 702.129C2571.19 702.129 2591.46 690.125 2603.31 666.118H2660.83C2653.04 689.813 2638.85 709.3 2618.27 724.577C2598.01 739.543 2572.75 747.025 2542.51 747.025C2517.88 747.025 2495.74 741.569 2476.1 730.657C2456.77 719.433 2441.49 703.843 2430.27 683.889C2419.36 663.623 2413.9 640.24 2413.9 613.738C2413.9 587.236 2419.2 564.008 2429.8 544.054C2440.71 523.788 2455.83 508.199 2475.16 497.287C2494.81 486.374 2517.26 480.918 2542.51 480.918C2566.83 480.918 2588.5 486.218 2607.52 496.819C2626.54 507.42 2641.34 522.385 2651.95 541.716C2662.55 560.735 2667.85 582.716 2667.85 607.658ZM2612.19 590.822C2611.88 571.18 2604.87 555.434 2591.15 543.587C2577.43 531.739 2560.44 525.815 2540.17 525.815C2521.78 525.815 2506.03 531.739 2492.94 543.587C2479.84 555.123 2472.05 570.868 2469.55 590.822H2612.19Z" fill="#00A781"/>
<path d="M738.803 861.908L618.111 741.217M618.111 741.217C638.756 720.572 655.132 696.063 666.305 669.089C677.478 642.115 683.229 613.205 683.229 584.009C683.229 554.813 677.478 525.902 666.305 498.929C655.132 471.955 638.756 447.446 618.111 426.801C597.466 406.156 572.957 389.78 545.984 378.607C519.01 367.434 490.1 361.684 460.903 361.684C431.707 361.684 402.797 367.434 375.823 378.607C348.849 389.78 324.34 406.156 303.696 426.801C262.002 468.495 238.578 525.045 238.578 584.009C238.578 642.973 262.002 699.522 303.696 741.217C345.39 782.911 401.939 806.334 460.903 806.334C519.868 806.334 576.417 782.911 618.111 741.217Z" stroke="#FFFFFF" stroke-width="38.4784" stroke-linecap="round" stroke-linejoin="round"/>
</svg>
